/* XPM */
static char *img_ref[] = {
/* columns rows colors chars-per-pixel */
"60 50 2 1 ",
"  c gray100",
". c black",
/* pixels */
"                             ....                           ",
"                             ....                           ",
"                             ....                           ",
"                             ....                           ",
"                             ....                           ",
"                             ....                           ",
"                             ....                           ",
"                             ....                           ",
"                             ....                           ",
"                             ....                           ",
"                             ....                           ",
"                             ....                           ",
"                             ....                           ",
"                             ....                           ",
"                             ....                           ",
"                             ....                           ",
"                             ....                           ",
"                             ....                           ",
"                             ....                           ",
"                             ....                           ",
"                             ....                           ",
"                             ....                           ",
"                             ....                           ",
"                             ....                           ",
"............................................................",
"............................................................",
"............................................................",
"............................................................",
"                             ....                           ",
"                             ....                           ",
"                             ....                           ",
"                             ....                           ",
"                             ....                           ",
"                             ....                           ",
"                             ....                           ",
"                             ....                           ",
"                             ....                           ",
"                             ....                           ",
"                             ....                           ",
"                             ....                           ",
"                             ....                           ",
"                             ....                           ",
"                             ....                           ",
"                             ....                           ",
"                             ....                           ",
"                             ....                           ",
"                             ....                           ",
"                             ....                           ",
"                             ....                           ",
"                             ....                           "
};
