<?xml version="1.0" encoding="UTF-8"?>
<!DOCTYPE svg PUBLIC "-//W3C//DTD SVG 1.1//EN" "http://www.w3.org/Graphics/SVG/1.1/DTD/svg11.dtd">
<!-- Copyright Rafał Jopek ( rafaljopek at hotmail com ) -->
<!-- created: 2021-11-20 -->
<!-- updated: 2021-11-22 -->
<svg xmlns="http://www.w3.org/2000/svg" xml:space="preserve" width="120mm" height="78mm" version="1.1" style="shape-rendering:geometricPrecision; text-rendering:geometricPrecision; image-rendering:optimizeQuality; fill-rule:evenodd; clip-rule:evenodd"
viewBox="0 0 12000 7800"
 xmlns:xlink="http://www.w3.org/1999/xlink">
 <defs>
  <style type="text/css">
   <![CDATA[
    .fil6 {fill:#00AA4D}
    .fil2 {fill:#00AEEF}
    .fil0 {fill:#1C1B17}
    .fil4 {fill:#323B97}
    .fil5 {fill:#E82C2C}
    .fil3 {fill:#ED008C}
    .fil1 {fill:#FFF100}
    .fil7 {fill:#1C1B17;fill-rule:nonzero}
    .fil8 {fill:#B2B3B3;fill-rule:nonzero}
   ]]>
  </style>
 </defs>
 <g id="libGD_logo-1">
  <metadata id="libGD_logo-1"/>
  <rect class="fil0" x="4644.45" y="682.04" width="990" height="990"/>
  <rect class="fil1" x="4644.45" y="1842.54" width="990" height="990"/>
  <rect class="fil2" x="1997.84" y="1932.54" width="990" height="990"/>
  <rect class="fil3" x="4644.45" y="2973.01" width="990" height="990"/>
  <rect class="fil3" x="1997.84" y="3063.01" width="990" height="990"/>
  <rect class="fil2" x="4644.45" y="4103.48" width="990" height="990"/>
  <rect class="fil1" x="1997.84" y="4193.48" width="990" height="990"/>
  <rect class="fil0" x="1997.84" y="5325.34" width="990" height="990"/>
  <rect class="fil4" x="3475.74" y="1842.54" width="990" height="990"/>
  <rect class="fil5" x="829.13" y="1932.54" width="990" height="990"/>
  <rect class="fil6" x="3475.74" y="2973.01" width="990" height="990"/>
  <rect class="fil6" x="829.13" y="3063.01" width="990" height="990"/>
  <rect class="fil5" x="3475.74" y="4103.48" width="990" height="990"/>
  <rect class="fil4" x="829.13" y="4193.48" width="990" height="990"/>
  <path class="fil7" d="M3940.87 6945.88c71.35,0 125.72,-20.58 162.76,-61.75 37.03,-41.16 55.38,-101.22 55.38,-180.18l0 -135.31 0 0 -7.14 8.77c-64.21,87.73 -154.59,131.6 -271.14,131.6 -125.72,0 -226.3,-45.55 -301.73,-136.32 -75.44,-90.77 -113.15,-211.57 -113.15,-362.73 0,-151.85 39.07,-273.32 117.57,-364.42 78.48,-91.11 183.14,-136.66 313.28,-136.66 112.47,-0.68 199.79,39.81 262.31,121.47l0 0 0 -93.13 0 0 265.03 0 0 917.8c0,163.65 -37.37,281.75 -112.47,354.3 -75.09,72.55 -197.41,108.65 -366.62,108.65 -137.62,0 -244.65,-28.01 -321.1,-84.02 -76.8,-56.35 -115.18,-134.97 -115.18,-235.86l0 0 265.03 0 0 0c0,46.9 14.61,83.35 44.16,108.99 29.23,25.98 70.34,38.8 123.01,38.8zm7.14 -1064.92c-70,0 -124.37,28.69 -163.11,86.39 -38.72,57.7 -58.1,138.68 -58.1,242.61 0,103.25 19.38,183.56 58.1,240.92 38.74,57.36 92.77,86.04 162.09,86.04 70.67,0 125.38,-28.68 164.45,-86.38 39.07,-57.7 58.45,-138.34 58.45,-241.6 0,-103.25 -19.38,-183.89 -58.45,-241.59 -39.07,-57.7 -93.44,-86.39 -163.43,-86.39z"/>
  <path class="fil7" d="M4577.24 6178.92c0,-152.83 35.35,-278.23 105.72,-376.2 78.14,-109.73 187.11,-164.59 326.54,-164.59 71.67,0 133.61,15.67 185.82,47.02 45.72,27.44 85.28,66.62 119.33,117.57l3.9 -503.57 266.56 0 0 1410.77 -266.56 0 0 -129.32c-33.73,57.48 -75.23,97.97 -124.53,121.48 -49.29,23.52 -108.96,35.27 -178.99,35.27 -128.43,0 -231.54,-45.06 -309.37,-135.2 -85.61,-97.97 -128.42,-239.04 -128.42,-423.23zm282.12 17.64c0,79.68 14.93,146.95 44.76,201.82 40.2,74.45 99.87,111.68 179,111.68 81.72,0 143.98,-30.04 186.79,-90.13 37.61,-53.56 56.42,-122.79 56.42,-207.7 0,-97.97 -15.57,-175.04 -46.7,-231.21 -38.91,-70.54 -101.82,-105.8 -188.73,-105.8 -81.71,0 -142.03,32.65 -180.94,97.97 -33.74,56.17 -50.6,130.62 -50.6,223.37z"/>
  <polygon class="fil8" points="5973.45,6595.97 6744.14,6595.97 6744.14,6711.53 5838.04,6711.53 5838.04,5299.39 5973.45,5299.39 "/>
  <path class="fil8" d="M6830.92 5696.98l117.49 0 0 1014.55 -117.49 0 0 -1014.55zm-7.97 -394.01l135.42 0 0 215.61 -135.42 0 0 -215.61z"/>
  <path class="fil8" d="M7258.24 6527.42l0 184.11 -121.48 0 0 -1412.14 121.48 0 0 558.19c33.19,-53.53 80.98,-97.27 143.38,-131.22 71.69,-39.17 150.69,-58.76 236.98,-58.76 130.12,0 235.66,45.05 316.64,135.47 87.63,97.93 131.44,233.4 131.44,406.08l0 41.13c0,187.05 -56.43,322.52 -169.27,406.41 -75.68,56.15 -167.28,84.22 -274.82,84.22 -83.64,0 -159.32,-18.61 -227.03,-55.49 -67.71,-36.89 -120.15,-89.45 -157.32,-158zm0 -312.39c0,125.67 31.86,226.87 95.59,303.25 63.72,76.71 152.01,114.91 264.86,114.91 94.27,0 171.93,-30.69 232.99,-92.38 73.03,-73.12 109.54,-176.6 109.54,-310.11 0,-132.21 -27.55,-238.63 -82.65,-318.93 -55.09,-80.63 -133.76,-126.65 -235.98,-138.4 -110.19,0 -199.81,34.6 -268.85,104.13 -77,78.34 -115.5,190.96 -115.5,337.53z"/>
  <path class="fil8" d="M8350.7 5892.84c33.19,-88.79 82.98,-150.81 149.36,-186.07 49.13,-26.11 113.51,-39.17 193.17,-39.17l0 129.27c-118.15,0 -206.44,37.86 -264.86,113.6 -51.78,66.59 -77.67,157.34 -77.67,272.24l0 528.82 -121.47 0 0 -1014.55 121.47 0 0 195.86z"/>
  <path class="fil8" d="M9471.08 6180.75c-33.18,11.75 -68.7,21.22 -106.54,28.4 -37.84,7.18 -73.35,12.73 -106.54,16.65 -116.83,11.75 -193.17,22.85 -229.02,33.3 -75.67,23.5 -126.78,67.24 -153.34,131.22l-7.96 52.88c2.65,23.51 5.64,41.46 8.96,53.86 3.31,12.41 9.63,27.75 18.92,46.03 14.6,23.5 39.17,44.07 73.68,61.7 34.52,17.62 76.34,26.44 125.47,26.44 120.81,0 215.73,-30.03 284.76,-90.1 61.08,-53.53 91.61,-116.86 91.61,-189.98l0 -170.4zm0 389.76c-95.58,113.6 -218.39,170.4 -368.41,170.4 -83.64,0 -155.34,-15.67 -215.08,-47.33 -66.38,-35.26 -108.87,-86.51 -127.45,-153.1l-19.91 -100.54c0,-96.95 43.48,-171.05 130.1,-221.97 61.41,-36.89 151.02,-63.66 268.51,-80.96 69.38,-6.53 138.74,-13.06 208.11,-19.59 82.65,-18.28 124.13,-61.36 124.13,-129.59 0,-69.53 -25.22,-123.06 -76,-160.28 -50.79,-37.54 -114.18,-56.14 -190.52,-56.14 -81.31,0 -144.71,15.04 -190.18,45.04 -57.39,37.87 -81.61,99.89 -92.23,186.07l-122.14 0c0,-112.29 30.53,-198.47 111.48,-258.53 70.36,-52.2 161.3,-78.35 272.82,-78.35l41.82 0c116.84,0 207.78,28.73 272.83,86.18 59.75,53.54 89.62,124.7 89.62,213.49l0 585.62c0,49.61 19.25,76.38 57.75,80.3l49.7 -15.67 0 92.05c-11.95,3.92 -8.89,7.53 -30.78,10.78 -21.89,3.24 -41.49,4.89 -58.75,4.89 -49.12,0 -83.97,-12.4 -104.55,-37.21 -20.58,-24.81 -30.87,-63.33 -30.87,-115.56z"/>
  <path class="fil8" d="M9920.31 5893.83c33.18,-88.68 82.98,-150.62 149.36,-185.84 49.12,-26.06 107.52,-39.11 187.18,-39.11l50.67 129.82 -44.68 -0.72c-118.16,0 -206.46,37.82 -264.87,113.46 -51.78,66.51 -77.66,157.15 -77.66,271.91l0 528.18 -121.48 0 0 -1013.32 121.48 0 0 195.62zm792.86 644.5l330.25 -869.47 127.45 0 -437.78 1131.81c-27.89,77.27 -60.41,137.98 -97.59,182.46 -51.78,61.37 -111.52,92.21 -179.22,92.21 -17.26,0 -32.53,-0.65 -45.81,-1.95 -31.85,-5.19 -53.1,-8.76 -63.72,-10.06l0 -110.72c10.62,3.25 23.89,5.85 39.83,8.12 15.93,2.27 29.87,3.57 41.82,3.57 79.66,0 132.1,-39.28 157.32,-117.85l61.73 -160.72 -400.28 -1016.87 134.43 0.32 331.57 869.15z"/>
 </g>
</svg>
